<svg xmlns="http://www.w3.org/2000/svg"  viewBox="0 0 48 48" width="48px" height="48px"><path fill="#373837" d="M43.548,37.421c0-4.804,0.214-4.386,0.185-9.82c-0.005-0.871-0.224-5.613-0.128-6.479	c0.238-2.132,0.052-4.283-0.044-6.425c-0.269-5.983,0.202-7.909-2.242-9.248c-1.833-1.003-4.37-0.561-6.458-0.664	c-2.087-0.104-3.743,0.029-5.832-0.011C22.553,4.65,18.206,5.032,12.792,4.812C10.817,4.732,6.841,4.717,5.3,5.954	c-1.484,1.191-1.242,3.507-1.404,5.975C3.556,17.092,4.2,19.575,4.178,23.848c-0.008,1.633-0.017,3.266-0.025,4.899	c-0.007,1.317,0.198,2.622,0.219,3.939c0.02,1.225-0.233,4.91-0.131,6.165c0.102,1.254-0.061,2.729,1.593,3.971	c0.429,0.322,2.019,0.494,2.541,0.618c0.98,0.233,6.462,0.119,6.975,0.068c4.804-0.48,6.369,0,11.174,0	c1.334,0,4.64-0.349,5.974-0.322c3.375,0.069,5.173,0.064,6.246,0C43.166,42.922,43.736,41.987,43.548,37.421"/><path fill="#bcbcbc" d="M43.548,37.421c0-4.805,0.214-4.386,0.185-9.82c-0.005-0.871-0.224-5.613-0.128-6.479	c0.074-0.667,0.099-1.337,0.106-2.007c-0.955,0.622-2.42,1.422-3.367,2.041c-0.28,0.183-0.752,0.625-0.752,0.625	s-0.282,0.695-0.38,1.055c-0.21,0.775-0.657,1.505-1.288,2.099c-0.778-1.257-1.789-2.414-2.985-3.415	c-0.433,0.34-0.867,0.679-1.3,1.019c-1.032-1.699-2.064-3.399-3.096-5.098c-0.832,0.866-0.796,2.04-1.568,3.707	c-0.419,0.905-1.121,2.627-1.121,2.627l-1.84,0.775c0,0-1.308,1.821-2.014,3.282c-1.174-1.684-2.22-2.106-2.832-3.282	c-0.612-1.177-1.039-2.437-1.91-3.494c-1.258,1.564-2.515,3.129-3.773,4.693c-0.507-0.321-1.013-0.643-1.52-0.964	c-1.211,1.355-3.641,3.424-3.641,3.424l-2.161-1.534c0,0-2.539-0.283-3.838-0.703l-0.157,0.102	c-0.005,0.891-0.009,1.783-0.014,2.674c-0.007,1.317,0.198,2.622,0.219,3.939c0.02,1.225-0.233,4.91-0.131,6.165	c0.102,1.254-0.061,2.729,1.593,3.971c0.429,0.322,2.019,0.494,2.541,0.618c0.98,0.233,6.462,0.119,6.975,0.068	c4.805-0.48,6.369,0,11.174,0c1.334,0,4.64-0.349,5.974-0.322c3.375,0.069,5.173,0.064,6.246,0	C43.166,42.922,43.736,41.987,43.548,37.421z"/><path fill="#d6e5e5" d="M10.324,28.709c-0.101,0-0.203-0.03-0.29-0.093l-2.057-1.46c-0.544-0.064-2.631-0.328-3.807-0.709	c-0.263-0.085-0.407-0.366-0.322-0.63c0.085-0.262,0.365-0.405,0.629-0.321c1.235,0.399,3.715,0.679,3.74,0.682	c0.084,0.01,0.165,0.04,0.234,0.09l1.841,1.307c0.68-0.591,2.371-2.085,3.299-3.123c0.163-0.184,0.434-0.222,0.641-0.089	l1.143,0.725l3.493-4.345c0.094-0.117,0.236-0.186,0.387-0.187c0.183-0.003,0.293,0.065,0.389,0.182	c0.655,0.796,1.069,1.687,1.469,2.549c0.161,0.347,0.322,0.693,0.498,1.033c0.272,0.521,0.649,0.882,1.126,1.337	c0.363,0.347,0.761,0.728,1.185,1.244c0.718-1.29,1.64-2.577,1.686-2.642c0.054-0.074,0.127-0.133,0.212-0.169l1.649-0.695	c0.196-0.477,0.711-1.72,1.053-2.456c0.299-0.646,0.475-1.226,0.629-1.737c0.244-0.808,0.455-1.506,1.032-2.105	c0.107-0.112,0.264-0.164,0.415-0.15c0.154,0.018,0.292,0.104,0.373,0.237l2.803,4.616l0.857-0.672	c0.187-0.146,0.449-0.141,0.63,0.01c1.065,0.894,1.982,1.896,2.733,2.989c0.348-0.432,0.598-0.914,0.735-1.42	c0.104-0.385,0.387-1.083,0.399-1.112c0.027-0.066,0.068-0.127,0.121-0.176c0.052-0.049,0.512-0.479,0.819-0.68	c0.484-0.317,1.104-0.682,1.724-1.045c0.6-0.353,1.199-0.704,1.669-1.012c0.229-0.149,0.54-0.086,0.692,0.146	c0.15,0.231,0.086,0.541-0.146,0.692c-0.481,0.314-1.095,0.675-1.709,1.036c-0.604,0.354-1.21,0.71-1.684,1.02	c-0.165,0.108-0.443,0.353-0.603,0.498c-0.093,0.235-0.257,0.663-0.319,0.895c-0.234,0.865-0.728,1.672-1.426,2.331	c-0.11,0.104-0.263,0.15-0.408,0.133c-0.149-0.02-0.281-0.105-0.36-0.232c-0.686-1.107-1.551-2.126-2.575-3.032l-0.978,0.767	c-0.113,0.088-0.256,0.12-0.398,0.099c-0.141-0.025-0.264-0.11-0.338-0.232l-2.698-4.444c-0.158,0.318-0.271,0.689-0.405,1.136	c-0.164,0.542-0.351,1.157-0.679,1.867c-0.411,0.885-1.105,2.589-1.112,2.605c-0.05,0.123-0.146,0.221-0.269,0.272l-1.709,0.72	c-0.292,0.416-1.31,1.894-1.89,3.094c-0.077,0.16-0.233,0.267-0.411,0.28c-0.181,0.014-0.349-0.066-0.45-0.212	c-0.551-0.79-1.078-1.294-1.543-1.738c-0.5-0.479-0.974-0.93-1.322-1.6c-0.184-0.353-0.351-0.713-0.519-1.073	c-0.3-0.646-0.587-1.266-0.964-1.833l-3.367,4.188c-0.16,0.198-0.442,0.246-0.658,0.108l-1.167-0.741	c-1.27,1.341-3.309,3.081-3.401,3.16S10.439,28.709,10.324,28.709z"/><path fill="#010101" d="M31.146,16.936c-0.273,0-0.496-0.22-0.5-0.493c-0.012-0.907,0.023-2.119,0.062-3.402	c0.085-2.853,0.189-6.401-0.201-8.16c-0.06-0.27,0.11-0.537,0.38-0.597c0.271-0.059,0.537,0.111,0.597,0.38	c0.418,1.881,0.314,5.348,0.225,8.406c-0.038,1.272-0.073,2.474-0.062,3.359c0.004,0.276-0.217,0.503-0.493,0.507	C31.149,16.936,31.147,16.936,31.146,16.936z"/><path fill="#010101" d="M11.686,44.083c-1.468,0-2.922-0.036-3.426-0.156c-0.137-0.032-0.351-0.067-0.597-0.109	c-0.975-0.164-1.751-0.312-2.129-0.595c-1.624-1.22-1.7-2.674-1.762-3.842c-0.009-0.166-0.017-0.33-0.03-0.489	c-0.063-0.78,0.003-2.422,0.062-3.871c0.039-0.959,0.075-1.839,0.067-2.326c-0.01-0.602-0.059-1.201-0.107-1.8	c-0.057-0.7-0.116-1.425-0.112-2.15l0.025-4.898c0.009-1.705-0.092-3.153-0.189-4.554c-0.146-2.104-0.297-4.282-0.093-7.396	c0.03-0.448,0.045-0.893,0.061-1.325c0.072-2.001,0.14-3.891,1.53-5.006c1.538-1.234,5.107-1.357,7.825-1.252	c2.862,0.116,5.444,0.063,8.177,0.007c2.461-0.052,5.006-0.104,8.05-0.045c0.881,0.018,1.686,0.002,2.479-0.011	c1.108-0.02,2.153-0.038,3.368,0.022c0.559,0.026,1.148,0.014,1.751,0.002c1.704-0.034,3.473-0.072,4.923,0.723	c2.262,1.239,2.308,2.997,2.408,6.848c0.021,0.824,0.046,1.757,0.093,2.816l0.056,1.104c0.092,1.767,0.188,3.594-0.014,5.399	c-0.063,0.562,0.023,3.067,0.08,4.725c0.027,0.783,0.049,1.425,0.051,1.695c0.015,2.891-0.039,4.155-0.092,5.379	c-0.046,1.078-0.094,2.191-0.094,4.434c0.192,4.679-0.445,5.987-5.275,6.275c-1.139,0.068-3.02,0.068-6.285,0.001	c-0.672-0.013-1.942,0.077-3.157,0.165c-1.112,0.08-2.163,0.156-2.806,0.156c-1.756,0-3.1-0.064-4.285-0.121	c-2.132-0.103-3.816-0.185-6.839,0.118C15.121,44.033,13.394,44.083,11.686,44.083z M11.334,5.282c-2.816,0-4.864,0.374-5.721,1.062	c-1.033,0.829-1.09,2.42-1.156,4.263c-0.016,0.442-0.032,0.896-0.062,1.355c-0.2,3.046-0.051,5.189,0.093,7.261	c0.099,1.419,0.2,2.886,0.191,4.629L4.653,28.75c-0.003,0.683,0.054,1.384,0.109,2.063c0.05,0.62,0.101,1.241,0.11,1.865	c0.008,0.507-0.029,1.418-0.068,2.383c-0.058,1.42-0.123,3.029-0.064,3.748c0.014,0.17,0.023,0.343,0.032,0.52	c0.058,1.107,0.113,2.154,1.363,3.094c0.213,0.159,1.214,0.328,1.695,0.408c0.273,0.047,0.51,0.087,0.662,0.123	c0.852,0.201,6.232,0.115,6.809,0.057c3.097-0.311,4.899-0.224,6.988-0.123c1.174,0.057,2.505,0.12,4.237,0.12	c0.606,0,1.64-0.075,2.733-0.154c1.238-0.09,2.525-0.18,3.25-0.167c3.237,0.066,5.093,0.067,6.206,0.001	c4.03-0.24,4.517-0.829,4.334-5.246v-0.021c0-2.271,0.048-3.397,0.095-4.487c0.052-1.211,0.105-2.464,0.091-5.33	c-0.002-0.266-0.023-0.896-0.05-1.667c-0.08-2.317-0.141-4.283-0.075-4.87c0.192-1.724,0.099-3.51,0.009-5.236l-0.055-1.11	c-0.049-1.067-0.073-2.006-0.095-2.835c-0.098-3.766-0.131-5.034-1.889-5.997c-1.216-0.666-2.844-0.631-4.422-0.6	c-0.625,0.013-1.24,0.027-1.82-0.004c-1.182-0.057-2.211-0.039-3.302-0.021c-0.802,0.015-1.616,0.03-2.516,0.012	c-3.022-0.059-5.558-0.006-8.01,0.045c-2.75,0.057-5.346,0.108-8.238-0.007C12.273,5.292,11.793,5.282,11.334,5.282z"/><path fill="#010101" d="M30.711,43.754c-0.013,0-0.025,0-0.038-0.001c-0.275-0.021-0.482-0.261-0.462-0.536	c0.032-0.428,0.033-1.385,0.034-2.311c0.001-0.996,0.001-1.938,0.036-2.405l0.021-0.268c0.085-1.142,0.142-1.896,0.045-3.052	c-0.067-0.787-0.106-4.581-0.038-5.236c0.083-0.794,0.142-6.644-0.034-10.085c-0.015-0.275,0.197-0.511,0.474-0.524	c0.312-0.031,0.511,0.198,0.524,0.474c0.169,3.301,0.127,9.323,0.03,10.24c-0.061,0.588-0.02,4.341,0.04,5.048	c0.104,1.234,0.041,2.063-0.044,3.21l-0.02,0.268c-0.033,0.432-0.034,1.397-0.034,2.332c-0.001,0.987-0.002,1.919-0.036,2.384	C31.189,43.554,30.97,43.754,30.711,43.754z"/><path fill="#16b7b8" d="M30.61,14.215c-1.022,0.046-1.756,0.417-2.18,1.02c-0.526,0.748-0.624,1.896-0.214,2.663	c0.236,0.441,0.675,0.76,1.045,1.145c0.428,0.446,1.45,0.589,1.794,0.594c0.584,0.008,1.241,0.103,1.718-0.204	c0.802-0.516,0.906-0.722,1.122-1.204c0.216-0.482,0.384-1.042,0.346-1.556c-0.086-1.172-0.859-1.97-1.505-2.249	S31.323,14.092,30.61,14.215"/><path fill="#010101" d="M31.772,20.157c-0.146,0-0.289-0.006-0.427-0.011l-0.298-0.01c-0.014,0-1.47-0.04-2.147-0.746	c-0.104-0.108-0.213-0.21-0.321-0.312c-0.294-0.276-0.599-0.562-0.804-0.944c-0.5-0.936-0.396-2.275,0.245-3.188	c0.526-0.748,1.403-1.173,2.536-1.229c0.84-0.14,1.685-0.052,2.377,0.248c0.827,0.357,1.706,1.322,1.806,2.672	c0.039,0.528-0.092,1.133-0.389,1.796c-0.264,0.59-0.444,0.865-1.308,1.421C32.649,20.107,32.202,20.157,31.772,20.157z M31.339,14.651c-0.211,0-0.427,0.019-0.644,0.057c-0.021,0.003-0.042,0.006-0.063,0.007c-0.826,0.036-1.447,0.315-1.793,0.808	c-0.423,0.601-0.503,1.54-0.182,2.141c0.127,0.237,0.359,0.455,0.606,0.687c0.12,0.113,0.242,0.228,0.357,0.349	c0.268,0.278,1.081,0.434,1.441,0.438l0.322,0.01c0.422,0.02,0.856,0.035,1.117-0.134c0.693-0.446,0.75-0.572,0.937-0.988	c0.225-0.503,0.33-0.958,0.303-1.314c-0.067-0.928-0.672-1.597-1.204-1.827C32.184,14.729,31.771,14.651,31.339,14.651z M30.61,14.215h0.01H30.61z"/></svg>