<?xml version="1.0" encoding="utf-8"?>
<!-- Generator: Adobe Illustrator 19.0.0, SVG Export Plug-In . SVG Version: 6.00 Build 0)  -->
<svg version="1.1" id="layer" xmlns="http://www.w3.org/2000/svg" xmlns:xlink="http://www.w3.org/1999/xlink" x="0px" y="0px"
	 viewBox="-153 -46 652 652" style="enable-background:new -153 -46 652 652;" xml:space="preserve">
<style type="text/css">
	.st0{fill:#0073B1;}
	.st1{fill:#FFFFFF;}
</style>
<g>
	<path class="st0" d="M173.8,529c138.8,0,251.3-111.9,251.3-250c0-138.1-112.5-250-251.3-250C35,29-77.4,140.9-77.4,279
		C-77.4,417,35,529,173.8,529"/>
	<path class="st1" d="M218.1,453h7.9v-30.2c0-9.7,6.4-16.7,14.8-16.7c8.4,0,13.7,5.8,13.7,15.8V453h7.9v-30.5
		c0-10.5,6.6-16.4,14.6-16.4c8.7,0,13.8,5.7,13.8,16v31h7.9v-32.8c0-13.1-7.5-21.3-19.8-21.3c-9.3,0-14.9,4.7-18.8,10.6
		c-2.9-5.9-8.5-10.6-17.1-10.6c-9,0-13.7,4.8-17.2,10V400h-7.9V453z M177.6,447.2c-11.2,0-19.7-9.2-19.7-20.6v-0.2
		c0-11.2,7.9-20.5,19.5-20.5c11.2,0,19.8,9.3,19.8,20.7v0.2C197.1,437.9,189.1,447.2,177.6,447.2 M177.4,454.2
		c16.1,0,27.9-12.7,27.9-27.7v-0.2c0-15-11.7-27.5-27.7-27.5c-16.1,0-27.8,12.7-27.8,27.7v0.2C149.8,441.7,161.4,454.2,177.4,454.2
		 M119.7,454.2c10,0,16.4-4.3,21.7-10.2l-5-4.7c-4.2,4.5-9.5,7.9-16.3,7.9c-11.1,0-19.6-9.1-19.6-20.6v-0.2
		c0-11.4,8.2-20.5,19.1-20.5c7.2,0,12,3.6,16.2,8l5.3-5.5c-4.9-5.2-11.2-9.4-21.3-9.4c-15.6,0-27.3,12.7-27.3,27.7v0.2
		C92.4,441.6,104.2,454.2,119.7,454.2 M75.3,454.5c5,0,9.1-4,9.1-9c0-5-4.1-9-9.1-9c-5,0-9.1,4-9.1,9
		C66.2,450.5,70.3,454.5,75.3,454.5"/>
</g>
<polygon class="st1" points="-24.5,370.1 93.3,370.1 93.3,336 13.2,336 13.2,295.4 76.6,295.4 76.6,261.3 13.2,261.3 13.2,222.4 
	93.5,222.4 93.5,187.8 -24.5,187.8 "/>
<polygon class="st1" points="158.7,370.1 196.4,370.1 196.4,222.4 242.5,222.4 242.5,187.8 112.6,187.8 112.6,222.4 158.7,222.4 "/>
<polygon class="st1" points="379.1,222.5 379.1,187.8 261.1,187.8 261.1,370.1 299,370.1 299,295.4 362.5,295.4 362.5,261.3 
	299,261.3 299,222.5 "/>
</svg>
