<svg xmlns="http://www.w3.org/2000/svg" xmlns:xlink="http://www.w3.org/1999/xlink" version="1.1" width="256" height="256" viewBox="0 0 256 256" xml:space="preserve">

<defs>
</defs>
<g style="stroke: none; stroke-width: 0; stroke-dasharray: none; stroke-linecap: butt; stroke-linejoin: miter; stroke-miterlimit: 10; fill: none; fill-rule: nonzero; opacity: 1;" transform="translate(1.4065934065934016 1.4065934065934016) scale(2.2 2.2)" >
	<circle cx="5.782" cy="69.862" r="4.362" style="stroke: none; stroke-width: 1; stroke-dasharray: none; stroke-linecap: butt; stroke-linejoin: miter; stroke-miterlimit: 10; fill: #2f2f2f; fill-rule: nonzero; opacity: 1;" transform="  matrix(1 0 0 1 0 0) "/>
	<circle cx="47.092" cy="57.852000000000004" r="4.362" style="stroke: none; stroke-width: 1; stroke-dasharray: none; stroke-linecap: butt; stroke-linejoin: miter; stroke-miterlimit: 10; fill: #2f2f2f; fill-rule: nonzero; opacity: 1;" transform="  matrix(1 0 0 1 0 0) "/>
	<circle cx="30.832" cy="43.032000000000004" r="4.362" style="stroke: none; stroke-width: 1; stroke-dasharray: none; stroke-linecap: butt; stroke-linejoin: miter; stroke-miterlimit: 10; fill: #2f2f2f; fill-rule: nonzero; opacity: 1;" transform="  matrix(1 0 0 1 0 0) "/>
	<circle cx="83.80199999999999" cy="19.561999999999998" r="4.362" style="stroke: none; stroke-width: 1; stroke-dasharray: none; stroke-linecap: butt; stroke-linejoin: miter; stroke-miterlimit: 10; fill: #2f2f2f; fill-rule: nonzero; opacity: 1;" transform="  matrix(1 0 0 1 0 0) "/>
	<path d="M 26.103 46.529 L 9.41 64.149 c -0.092 0.97 0.351 1.705 1.9 1.793 l 16.692 -17.62 C 27.869 47.022 27.071 46.614 26.103 46.529 z" style="stroke: none; stroke-width: 1; stroke-dasharray: none; stroke-linecap: butt; stroke-linejoin: miter; stroke-miterlimit: 10; fill: rgb(14 165 233); fill-rule: nonzero; opacity: 1;" transform=" matrix(1 0 0 1 0 0) " stroke-linecap="round" />
	<path d="M 43.409 52.88 l -6.916 -6.611 c -1.18 -0.01 -1.73 0.703 -1.8 1.893 l 6.987 6.679 C 43.138 54.816 43.681 54.114 43.409 52.88 z" style="stroke: none; stroke-width: 1; stroke-dasharray: none; stroke-linecap: butt; stroke-linejoin: miter; stroke-miterlimit: 10; fill: rgb(14 165 233); fill-rule: nonzero; opacity: 1;" transform=" matrix(1 0 0 1 0 0) " stroke-linecap="round" />
	<path d="M 6.197 65.855 c 1.977 0 3.585 1.608 3.585 3.585 s -1.608 3.585 -3.585 3.585 s -3.585 -1.608 -3.585 -3.585 S 4.22 65.855 6.197 65.855 M 6.197 63.243 C 2.774 63.243 0 66.018 0 69.44 s 2.774 6.197 6.197 6.197 s 6.197 -2.774 6.197 -6.197 S 9.619 63.243 6.197 63.243 L 6.197 63.243 z" style="stroke: none; stroke-width: 1; stroke-dasharray: none; stroke-linecap: butt; stroke-linejoin: miter; stroke-miterlimit: 10; fill: rgb(14 165 233); fill-rule: nonzero; opacity: 1;" transform=" matrix(1 0 0 1 0 0) " stroke-linecap="round" />
	<path d="M 31.216 39.446 c 1.977 0 3.585 1.608 3.585 3.585 s -1.608 3.585 -3.585 3.585 s -3.585 -1.608 -3.585 -3.585 S 29.239 39.446 31.216 39.446 M 31.216 36.834 c -3.422 0 -6.197 2.774 -6.197 6.197 s 2.774 6.197 6.197 6.197 s 6.197 -2.774 6.197 -6.197 S 34.639 36.834 31.216 36.834 L 31.216 36.834 z" style="stroke: none; stroke-width: 1; stroke-dasharray: none; stroke-linecap: butt; stroke-linejoin: miter; stroke-miterlimit: 10; fill: rgb(14 165 233); fill-rule: nonzero; opacity: 1;" transform=" matrix(1 0 0 1 0 0) " stroke-linecap="round" />
	<path d="M 47.089 54.272 c 1.977 0 3.585 1.608 3.585 3.585 s -1.608 3.585 -3.585 3.585 s -3.585 -1.608 -3.585 -3.585 S 45.113 54.272 47.089 54.272 M 47.089 51.66 c -3.422 0 -6.197 2.774 -6.197 6.197 s 2.774 6.197 6.197 6.197 s 6.197 -2.774 6.197 -6.197 S 50.512 51.66 47.089 51.66 L 47.089 51.66 z" style="stroke: none; stroke-width: 1; stroke-dasharray: none; stroke-linecap: butt; stroke-linejoin: miter; stroke-miterlimit: 10; fill: rgb(14 165 233); fill-rule: nonzero; opacity: 1;" transform=" matrix(1 0 0 1 0 0) " stroke-linecap="round" />
	<path d="M 83.803 15.975 c 1.977 0 3.585 1.608 3.585 3.585 s -1.608 3.585 -3.585 3.585 s -3.585 -1.608 -3.585 -3.585 S 81.826 15.975 83.803 15.975 M 83.803 13.363 c -3.422 0 -6.197 2.774 -6.197 6.197 s 2.774 6.197 6.197 6.197 c 3.422 0 6.197 -2.774 6.197 -6.197 S 87.226 13.363 83.803 13.363 L 83.803 13.363 z" style="stroke: none; stroke-width: 1; stroke-dasharray: none; stroke-linecap: butt; stroke-linejoin: miter; stroke-miterlimit: 10; fill: rgb(14 165 233); fill-rule: nonzero; opacity: 1;" transform=" matrix(1 0 0 1 0 0) " stroke-linecap="round" />
	<path d="M 81.208 24.026 c -0.133 -1.3 -0.931 -1.708 -1.9 -1.793 l -16.692 17.62 c 0 0 0 0.001 0 0.001 l -12.515 13.21 c -0.092 0.97 0.352 1.705 1.9 1.793 l 16.692 -17.62 c 0 0 0 0 0 -0.001 L 81.208 24.026 z" style="stroke: none; stroke-width: 1; stroke-dasharray: none; stroke-linecap: butt; stroke-linejoin: miter; stroke-miterlimit: 10; fill: rgb(14 165 233); fill-rule: nonzero; opacity: 1;" transform=" matrix(1 0 0 1 0 0) " stroke-linecap="round" />
</g>
</svg>