<?xml version="1.0" encoding="utf-8"?>
<!-- Generator: Adobe Illustrator 12.0.0, SVG Export Plug-In . SVG Version: 6.00 Build 51448)  -->
<!DOCTYPE svg PUBLIC "-//W3C//DTD SVG 1.1//EN" "http://www.w3.org/Graphics/SVG/1.1/DTD/svg11.dtd" [
	<!ENTITY ns_svg "http://www.w3.org/2000/svg">
	<!ENTITY ns_xlink "http://www.w3.org/1999/xlink">
]>
<svg  version="1.1" id="Layer_1" xmlns="&ns_svg;" xmlns:xlink="&ns_xlink;" width="234.467" height="234.466"
	 viewBox="0 0 234.467 234.466" overflow="visible" enable-background="new 0 0 234.467 234.466" xml:space="preserve">
<path fill="#003D7D" d="M89.094,141.369H74.578l1.879,7.528h19.286c14.946,0,24.733-5.423,25.811-15.8
	c1.855-17.887-27.509-22.687-27.509-30.961c0-3.581,2.964-5.935,9.891-5.935h12.05v-7.527c0,0-9.621,0-15.752,0
	c-15.287,0-22.778,5.358-23.7,14.512c-1.64,16.264,23.565,19.672,25.219,29.668C102.67,138.365,97.692,141.369,89.094,141.369z"/>
<polygon fill="#003D7D" points="35.068,150.776 51.995,147.007 51.995,96.201 70.345,96.201 70.345,88.674 15.295,88.674 
	17.177,96.201 35.068,96.201 "/>
<path fill="#003D7D" d="M209.616,71.686h-22.637c4.022-16.271,6.167-33.282,6.167-50.792l-14.189,5.675
	c-2.593,91.554-67.762,167.458-154.252,186.454l-1.809,5.479c38.293-7.818,72.634-26.493,99.678-52.665h16.46l21.652-31.063
	l21.642,31.063h27.288l-36.051-47.05L209.616,71.686z"/>
<path fill="#003D7D" d="M154.77,103.604l-11.2-14.93h-18.818l22.423,29.234C150.091,113.607,152.876,108.484,154.77,103.604z"/>
</svg>
